<svg xmlns="http://www.w3.org/2000/svg" width="400" height="250" viewBox="0 0 400 250">
  <defs>
    <style>
      .cls-1, .cls-2 {
        fill: #eee;
      }

      .cls-2 {
        fill-rule: evenodd;
      }
    </style>
  </defs>
  <title>eye-gh</title>
  <g id="OPEN">
    <path class="cls-1" d="M199.22,2.50214l-.10077-.00146a4.94823,4.94823,0,0,0-5.02264,4.87286l-.48157,31.85553a227.76121,227.76121,0,0,0-24.88538,1.499l-4.076-31.57623a4.9482,4.9482,0,0,0-5.541-4.274l-.10059.013a4.9483,4.9483,0,0,0-4.27411,5.541l4.07288,31.55017a260.79,260.79,0,0,0-26.40942,5.2583l-8.53229-30.53571a4.94813,4.94813,0,0,0-6.09711-3.43408l-.09692.027a4.94826,4.94826,0,0,0-3.43414,6.09735L122.75854,49.879Q110.29391,53.54913,98.15,58.46863c-.27551.11176-.54883.22748-.82385.34009L84.57208,30.05414a4.94826,4.94826,0,0,0-6.52936-2.517l-.09241.041a4.9483,4.9483,0,0,0-2.517,6.52966L88.14722,62.77185a260.555,260.555,0,0,0-23.9826,12.43408L47.60455,48.96472a4.94806,4.94806,0,0,0-6.82544-1.54382l-.08453.05334a4.94815,4.94815,0,0,0-1.54376,6.82538l16.4881,26.1272A260.72668,260.72668,0,0,0,33.605,96.18054L13.78564,73.00226A4.94807,4.94807,0,0,0,6.809,72.45734l-.0766.06531a4.94848,4.94848,0,0,0-.54492,6.97668l19.71643,23.0575q-7.57553,6.51846-14.71338,13.65375L9.3667,118.03424a7.53138,7.53138,0,0,0,0,10.65192l1.82361,1.82343A261.21584,261.21584,0,0,0,98.15,188.25177a261.9731,261.9731,0,0,0,98.91132,19.24811c.98114,0,1.959-.02423,2.93866-.03491.97968.01068,1.95752.03491,2.93866.03491A261.9731,261.9731,0,0,0,301.85,188.25177a261.21584,261.21584,0,0,0,86.95972-57.74219l1.82361-1.82343a7.53138,7.53138,0,0,0,0-10.65192l-1.82385-1.82367q-7.13443-7.13452-14.71338-13.65375l19.71643-23.0575a4.94848,4.94848,0,0,0-.54492-6.97668l-.0766-.06531a4.94807,4.94807,0,0,0-6.97662.54492L366.395,96.18054a260.72668,260.72668,0,0,0-22.03394-15.75372l16.4881-26.1272a4.94815,4.94815,0,0,0-1.54376-6.82538l-.08453-.05334a4.94806,4.94806,0,0,0-6.82544,1.54382L335.83539,75.20593a260.555,260.555,0,0,0-23.98261-12.43408l12.71393-28.66406a4.9483,4.9483,0,0,0-2.517-6.52966l-.09241-.041a4.94826,4.94826,0,0,0-6.52936,2.517L302.67383,58.80872c-.275-.11261-.54834-.22833-.82385-.34009q-12.13522-4.92105-24.60852-8.58966l8.51764-30.48413a4.94826,4.94826,0,0,0-3.43414-6.09735l-.09692-.027a4.94813,4.94813,0,0,0-6.09711,3.43408l-8.53229,30.53571a260.79,260.79,0,0,0-26.40942-5.2583l4.07288-31.55017a4.9483,4.9483,0,0,0-4.27411-5.541l-.10059-.013a4.9482,4.9482,0,0,0-5.541,4.274l-4.076,31.57623a227.76121,227.76121,0,0,0-24.88538-1.499l-.48157-31.85553a4.94823,4.94823,0,0,0-5.02264-4.87286l-.10077.00146Zm175.3667,120.85809a245.97356,245.97356,0,0,1-78.39764,50.93213,246.98284,246.98284,0,0,1-93.25043,18.14386c-.98114,0-1.959-.0235-2.93866-.03485-.97961.01135-1.95752.03485-2.93866.03485a246.98284,246.98284,0,0,1-93.25043-18.14386,245.97355,245.97355,0,0,1-78.39764-50.93213,246.96214,246.96214,0,0,1,171.64807-69.076c.98114,0,1.959.0235,2.93866.03485.97961-.01135,1.95752-.03485,2.93866-.03485a246.96214,246.96214,0,0,1,171.64807,69.076Z"/>
  </g>
  <g id="GH">
    <g>
      <path class="cls-2" d="M200,71.358a55.00592,55.00592,0,0,0-17.38755,107.18942c2.74837.50876,3.75788-1.19358,3.75788-2.64609,0-1.311-.05073-5.6443-.07468-10.24C170.99471,168.98864,167.766,159.172,167.766,159.172c-2.50192-6.3568-6.10679-8.04767-6.10679-8.04767-4.99063-3.41361.37615-3.34339.37615-3.34339,5.52252.38781,8.431,5.66843,8.431,5.66843,4.9052,8.40779,12.86652,5.977,16.00535,4.57167a11.71247,11.71247,0,0,1,3.49194-7.35474c-12.2164-1.39022-25.059-6.10688-25.059-27.18118a21.2849,21.2849,0,0,1,5.66752-14.76277c-.57106-1.38575-2.45392-6.97941.53281-14.55565,0,0,4.61876-1.47738,15.12835,5.63856a52.15355,52.15355,0,0,1,27.54495,0c10.49794-7.11594,15.10968-5.63856,15.10968-5.63856,2.99383,7.57625,1.11088,13.1699.53991,14.55565a21.24345,21.24345,0,0,1,5.66032,14.76277c0,21.125-12.86652,25.77585-25.11407,27.13756,1.97275,1.7069,3.73029,5.05384,3.73029,10.185,0,7.35911-.06312,13.28193-.06312,15.09365,0,1.464.98993,3.1789,3.77738,2.639A55.00783,55.00783,0,0,0,200,71.358Z"/>
      <path class="cls-1" d="M165.83149,150.32563c-.121.274-.55148.35575-.94275.168-.39938-.17961-.62261-.5523-.49364-.82626.11823-.28107.54875-.3593.94721-.17168.39938.1797.62707.55594.48918.8299Zm-.67689-.50166"/>
      <path class="cls-1" d="M168.05953,152.8107c-.2624.24281-.77561.12988-1.12336-.25438a.84041.84041,0,0,1-.161-1.14294c.27041-.24281.76761-.129,1.12782.25438.36021.38781.43053.89657.15656,1.14294Zm-.52479-.563"/>
      <path class="cls-1" d="M170.228,155.97795c-.33717.2348-.88856.01512-1.22919-.47406-.33717-.48918-.33717-1.07618.00792-1.311.34072-.2348.8841-.02313,1.22928.46158.33617.4972.33617,1.08419-.008,1.32346Zm0,0"/>
      <path class="cls-1" d="M173.19871,159.03854c-.30156.33262-.94374.24281-1.41335-.21085a1.058,1.058,0,0,1-.313-1.40524c.30593-.33271.95168-.23926,1.42483.21075.47761.44291.62261,1.07618.30156,1.40534Zm0,0"/>
      <path class="cls-1" d="M177.29722,160.81556c-.13343.43053-.75157.62616-1.37419.443-.62261-.18862-1.02909-.69292-.90368-1.12782.129-.43408.75067-.63773,1.37774-.44209.6217.18771,1.02909.68846.90013,1.12691Zm0,0"/>
      <path class="cls-1" d="M181.79867,161.14472c.01512.45357-.51323.82981-1.167.83783-.65731.01512-1.19-.3522-1.19713-.79876,0-.458.51669-.82981,1.174-.84138.65376-.01248,1.19012.3522,1.19012.80231Zm0,0"/>
      <path class="cls-1" d="M185.987,160.43221c.07824.44209-.37624.89657-1.02554,1.01753-.63863.1174-1.22919-.15647-1.311-.595-.07915-.45357.38335-.90814,1.02108-1.02554.65012-.11294,1.23274.153,1.31544.603Zm0,0"/>
    </g>
  </g>
</svg>
