<svg xmlns="http://www.w3.org/2000/svg" width="400" height="250" viewBox="0 0 400 250">
  <defs>
    <style>
      .cls-1 {
        fill: #eee;
      }
    </style>
  </defs>
  <title>eye-in</title>
  <g id="OPEN">
    <path class="cls-1" d="M199.22,2.50215l-.10077-.00146a4.94823,4.94823,0,0,0-5.02264,4.87286l-.48157,31.85553a227.7612,227.7612,0,0,0-24.88538,1.499l-4.076-31.57623a4.9482,4.9482,0,0,0-5.541-4.274l-.10059.013a4.9483,4.9483,0,0,0-4.27411,5.541l4.07288,31.55017a260.79,260.79,0,0,0-26.40942,5.2583l-8.53229-30.53571a4.94813,4.94813,0,0,0-6.09711-3.43408l-.09692.027a4.94826,4.94826,0,0,0-3.43414,6.09735L122.75854,49.879Q110.29391,53.54915,98.15,58.46864c-.27551.11176-.54883.22748-.82385.34009L84.57208,30.05415a4.94826,4.94826,0,0,0-6.52936-2.517l-.09241.041a4.9483,4.9483,0,0,0-2.517,6.52966L88.14722,62.77187a260.555,260.555,0,0,0-23.9826,12.43408L47.60455,48.96474a4.94806,4.94806,0,0,0-6.82544-1.54382l-.08453.05334a4.94815,4.94815,0,0,0-1.54376,6.82538l16.4881,26.1272A260.72668,260.72668,0,0,0,33.605,96.18056L13.78564,73.00227A4.94807,4.94807,0,0,0,6.809,72.45735l-.0766.06531a4.94848,4.94848,0,0,0-.54492,6.97668l19.71643,23.0575q-7.57553,6.51846-14.71338,13.65375L9.3667,118.03426a7.53138,7.53138,0,0,0,0,10.65192l1.82361,1.82343A261.21585,261.21585,0,0,0,98.15,188.25179a261.9731,261.9731,0,0,0,98.91132,19.24811c.98114,0,1.959-.02423,2.93866-.03491.97968.01068,1.95752.03491,2.93866.03491A261.9731,261.9731,0,0,0,301.85,188.25179a261.21585,261.21585,0,0,0,86.95972-57.74219l1.82361-1.82343a7.53138,7.53138,0,0,0,0-10.65192l-1.82385-1.82367q-7.13443-7.13452-14.71338-13.65375l19.71643-23.0575a4.94848,4.94848,0,0,0-.54492-6.97668l-.0766-.06531a4.94807,4.94807,0,0,0-6.97662.54492L366.395,96.18056a260.72668,260.72668,0,0,0-22.03394-15.75372l16.4881-26.1272a4.94815,4.94815,0,0,0-1.54376-6.82538l-.08453-.05334a4.94806,4.94806,0,0,0-6.82544,1.54382L335.83539,75.20595a260.555,260.555,0,0,0-23.98261-12.43408L324.56671,34.1078a4.9483,4.9483,0,0,0-2.517-6.52966l-.09241-.041a4.94826,4.94826,0,0,0-6.52936,2.517L302.67383,58.80873c-.275-.11261-.54834-.22833-.82385-.34009q-12.13522-4.92105-24.60852-8.58966l8.51764-30.48413A4.94826,4.94826,0,0,0,282.325,13.2975l-.09692-.027a4.94813,4.94813,0,0,0-6.09711,3.43408l-8.53229,30.53571a260.79,260.79,0,0,0-26.40942-5.2583l4.07288-31.55017a4.9483,4.9483,0,0,0-4.27411-5.541l-.10059-.013a4.9482,4.9482,0,0,0-5.541,4.274l-4.076,31.57623a227.7612,227.7612,0,0,0-24.88538-1.499l-.48157-31.85553a4.94823,4.94823,0,0,0-5.02264-4.87286l-.10077.00146Zm175.3667,120.85809a245.97356,245.97356,0,0,1-78.39764,50.93213,246.98284,246.98284,0,0,1-93.25043,18.14386c-.98114,0-1.959-.0235-2.93866-.03485-.97961.01135-1.95752.03485-2.93866.03485a246.98284,246.98284,0,0,1-93.25043-18.14386,245.97355,245.97355,0,0,1-78.39764-50.93213,246.96214,246.96214,0,0,1,171.64807-69.076c.98114,0,1.959.0235,2.93866.03485.97961-.01135,1.95752-.03485,2.93866-.03485a246.96214,246.96214,0,0,1,171.64807,69.076Z"/>
  </g>
  <g id="IN">
    <path class="cls-1" d="M242.60229,74.99861H157.376A7.29746,7.29746,0,0,0,150,82.20909v85.57627a7.30211,7.30211,0,0,0,7.376,7.216h85.22634A7.31578,7.31578,0,0,0,250,167.78536V82.20909A7.31115,7.31115,0,0,0,242.60229,74.99861Zm-62.93841,85.21292H164.817V112.48882h14.84686Zm-7.41934-54.2429a8.60142,8.60142,0,1,1,8.5966-8.602A8.59758,8.59758,0,0,1,172.24453,105.96864Zm62.97117,54.2429H220.385V137.00394c0-5.534-.095-12.65368-7.70688-12.65368-7.71771,0-8.89525,6.03183-8.89525,12.25756v23.60371h-14.8143V112.48882H203.1862v6.52407h.20334c1.97755-3.75177,6.81713-7.70827,14.03317-7.70827,15.01764,0,17.793,9.88139,17.793,22.73424Z"/>
  </g>
</svg>
