<svg id="CLOSED" xmlns="http://www.w3.org/2000/svg" width="400" height="250" viewBox="0 0 400 250">
  <defs>
    <style>
      .cls-1 {
        fill: #777;
      }
    </style>
  </defs>
  <title>eye-closed</title>
  <path class="cls-1" d="M103.81091,175.822a246.98166,246.98166,0,0,0,93.25043,18.14386A246.98119,246.98119,0,0,0,290.31158,175.822a245.94532,245.94532,0,0,0,78.01416-50.572h18.619a7.49553,7.49553,0,0,1-2.18866,4.96558l-1.82391,1.82361q-4.51813,4.51822-9.21667,8.78833l19.99768,21.998a4.94827,4.94827,0,0,1-.333,6.99l-.0741.06726a4.94823,4.94823,0,0,1-6.98987-.33289l-20.12164-22.134a261.74911,261.74911,0,0,1-21.65405,16.41785l16.99878,25.18408a4.94816,4.94816,0,0,1-1.333,6.86963l-.08337.05627a4.9481,4.9481,0,0,1-6.86969-1.33289L336.16284,169.291a259.94393,259.94393,0,0,1-23.67566,13.11853l13.42023,27.90106a4.94814,4.94814,0,0,1-2.31439,6.604l-.09155.04413a4.94831,4.94831,0,0,1-6.60406-2.31433l-13.47827-28.02173q-3.69452,1.63156-7.44666,3.15875-8.80032,3.56863-17.78033,6.4801l9.368,29.94971a4.94814,4.94814,0,0,1-3.24542,6.19977l-.09607.03a4.94812,4.94812,0,0,1-6.19971-3.24554l-9.39392-30.03284a260.73718,260.73718,0,0,1-26.28473,5.97968l5.00751,31.26471a4.94813,4.94813,0,0,1-4.10352,5.66846l-.09937.016a4.94823,4.94823,0,0,1-5.66846-4.10339l-5.0163-31.32141a264.20326,264.20326,0,0,1-26.84894,2.22284l.48145,31.83594a4.94823,4.94823,0,0,1-4.87268,5.02246l-.10077.00146a4.94823,4.94823,0,0,1-5.02264-4.87286l-.48157-31.85553a265.78873,265.78873,0,0,1-26.88538-1.499l-4.076,31.57623a4.9482,4.9482,0,0,1-5.541,4.274l-.10059-.013a4.9483,4.9483,0,0,1-4.27411-5.541l4.07288-31.55017a260.79,260.79,0,0,1-26.40942-5.2583l-8.53229,30.53571a4.94813,4.94813,0,0,1-6.09711,3.43408l-.09692-.027a4.94826,4.94826,0,0,1-3.43414-6.09735l8.51764-30.48413q-12.46463-3.67017-24.60852-8.58966c-.27551-.11176-.54883-.22748-.82385-.34009L84.57208,218.19591a4.94826,4.94826,0,0,1-6.52936,2.517l-.09241-.041a4.9483,4.9483,0,0,1-2.517-6.52966L88.14722,185.4782a260.555,260.555,0,0,1-23.9826-12.43408L47.60455,199.28533a4.94806,4.94806,0,0,1-6.82544,1.54382l-.08453-.05334a4.94815,4.94815,0,0,1-1.54376-6.82538l16.4881-26.1272A260.72667,260.72667,0,0,1,33.605,152.06951L13.78564,175.24779a4.94807,4.94807,0,0,1-6.97662.54492l-.0766-.06531a4.94848,4.94848,0,0,1-.54492-6.97668l19.71643-23.0575q-7.57553-6.51846-14.71338-13.65375L9.3667,130.21581A7.52444,7.52444,0,0,1,7.17816,125.25H25.79675A245.946,245.946,0,0,0,103.81091,175.822Z"/>
</svg>
